<svg width="26" height="25" viewBox="0 0 26 25" fill="none" xmlns="http://www.w3.org/2000/svg">
<path d="M9.60865 18.5224V23.3619C9.60865 23.7 9.82569 23.9995 10.1471 24.1059C10.2274 24.132 10.3099 24.1445 10.3912 24.1445C10.6354 24.1445 10.8712 24.0298 11.0215 23.8252L13.8524 19.9728L9.60865 18.5224Z" fill="white"/>
<path d="M25.1927 0.289665C24.9527 0.119581 24.6376 0.0966245 24.3767 0.233318L0.898884 12.494C0.621323 12.639 0.4575 12.9354 0.480456 13.2474C0.504456 13.5604 0.712105 13.8275 1.0074 13.9287L7.53425 16.1597L21.4342 4.27464L10.6782 17.2334L21.6168 20.9721C21.6982 20.9992 21.7837 21.0138 21.8693 21.0138C22.0112 21.0138 22.1521 20.9752 22.2763 20.9001C22.4745 20.7791 22.6091 20.5756 22.6436 20.3471L25.5131 1.04304C25.5559 0.750874 25.4327 0.460792 25.1927 0.289665Z" fill="white"/>
</svg>
